<svg width="100%" viewBox="0 0 680 220" role="img" xmlns="http://www.w3.org/2000/svg">
  <title>GitHub banner — Interstellar black hole with Matrix code rain</title>
  <desc>Deep space, green matrix code rain denser in center, subtle Interstellar-style black hole</desc>

  <defs>
    <radialGradient id="space" cx="50%" cy="50%" r="70%">
      <stop offset="0%" stop-color="#050c1a"/>
      <stop offset="100%" stop-color="#000004"/>
    </radialGradient>
    <radialGradient id="ring-glow" cx="50%" cy="50%" r="50%">
      <stop offset="62%" stop-color="#000000" stop-opacity="0"/>
      <stop offset="74%" stop-color="#c87820" stop-opacity="0.12"/>
      <stop offset="82%" stop-color="#f0b030" stop-opacity="0.32"/>
      <stop offset="88%" stop-color="#ffe090" stop-opacity="0.58"/>
      <stop offset="91%" stop-color="#ffffff" stop-opacity="0.72"/>
      <stop offset="94%" stop-color="#ffe090" stop-opacity="0.58"/>
      <stop offset="98%" stop-color="#c87820" stop-opacity="0.12"/>
      <stop offset="100%" stop-color="#000000" stop-opacity="0"/>
    </radialGradient>
    <radialGradient id="hole-fade" cx="50%" cy="50%" r="50%">
      <stop offset="0%" stop-color="#000000" stop-opacity="0.28"/>
      <stop offset="60%" stop-color="#000208" stop-opacity="0.18"/>
      <stop offset="85%" stop-color="#010510" stop-opacity="0.07"/>
      <stop offset="100%" stop-color="#000000" stop-opacity="0"/>
    </radialGradient>
    <radialGradient id="ambient" cx="50%" cy="50%" r="50%">
      <stop offset="0%" stop-color="#a06010" stop-opacity="0.12"/>
      <stop offset="60%" stop-color="#402008" stop-opacity="0.06"/>
      <stop offset="100%" stop-color="#000000" stop-opacity="0"/>
    </radialGradient>
  </defs>

  <rect width="680" height="220" fill="url(#space)"/>

  <circle cx="25" cy="12" r="0.8" fill="#fff" opacity="0.6"/>
  <circle cx="58" cy="28" r="0.5" fill="#fff" opacity="0.4"/>
  <circle cx="82" cy="8" r="1" fill="#fff" opacity="0.7"/>
  <circle cx="142" cy="15" r="0.7" fill="#fff" opacity="0.5"/>
  <circle cx="42" cy="65" r="0.6" fill="#fff" opacity="0.4"/>
  <circle cx="70" cy="82" r="0.5" fill="#fff" opacity="0.3"/>
  <circle cx="95" cy="55" r="0.8" fill="#fff" opacity="0.5"/>
  <circle cx="595" cy="12" r="0.8" fill="#fff" opacity="0.6"/>
  <circle cx="625" cy="28" r="0.5" fill="#fff" opacity="0.4"/>
  <circle cx="648" cy="8" r="1" fill="#fff" opacity="0.7"/>
  <circle cx="578" cy="55" r="0.7" fill="#fff" opacity="0.5"/>
  <circle cx="638" cy="88" r="0.6" fill="#fff" opacity="0.4"/>
  <circle cx="490" cy="18" r="0.6" fill="#fff" opacity="0.4"/>
  <circle cx="185" cy="22" r="0.5" fill="#fff" opacity="0.4"/>
  <circle cx="20" cy="185" r="0.8" fill="#fff" opacity="0.5"/>
  <circle cx="670" cy="188" r="0.7" fill="#fff" opacity="0.5"/>
  <circle cx="450" cy="195" r="0.5" fill="#fff" opacity="0.3"/>
  <circle cx="230" cy="200" r="0.6" fill="#fff" opacity="0.3"/>

  <ellipse cx="340" cy="110" rx="230" ry="105" fill="url(#ambient)"/>
  <circle cx="340" cy="110" r="90" fill="url(#ring-glow)"/>

  <rect x="115" y="105" width="450" height="10" fill="#ffffff" opacity="0.22"/>
  <rect x="115" y="105" width="450" height="10" fill="#f0b030" opacity="0.16"/>
  <rect x="80" y="107" width="520" height="6" fill="#ffe090" opacity="0.13"/>
  <rect x="60" y="108" width="560" height="4" fill="#ffffff" opacity="0.08"/>
  <rect x="115" y="104" width="90" height="4" fill="#c87820" opacity="0.18"/>
  <rect x="115" y="112" width="90" height="4" fill="#c87820" opacity="0.14"/>
  <rect x="475" y="104" width="90" height="4" fill="#c87820" opacity="0.18"/>
  <rect x="475" y="112" width="90" height="4" fill="#c87820" opacity="0.14"/>

  <circle cx="340" cy="110" r="75" fill="url(#hole-fade)"/>

  <style>
    .mc { font-family: 'Courier New', monospace; font-size: 10px; }
    .g1 { fill: #00ff41; opacity: 0.9; }
    .g2 { fill: #00cc33; opacity: 0.6; }
    .g3 { fill: #008822; opacity: 0.45; }
    .g4 { fill: #004410; opacity: 0.35; }
    .gc1 { fill: #00ff41; opacity: 0.28; }
    .gc2 { fill: #00cc33; opacity: 0.2; }
    .gc3 { fill: #00aa22; opacity: 0.15; }
  </style>

  <text x="15" y="16" class="mc g1">1</text><text x="15" y="30" class="mc g2">0</text><text x="15" y="44" class="mc g3">1</text><text x="15" y="58" class="mc g4">0</text><text x="15" y="72" class="mc g3">1</text><text x="15" y="86" class="mc g2">0</text><text x="15" y="100" class="mc g1">1</text><text x="15" y="114" class="mc g2">0</text><text x="15" y="128" class="mc g3">1</text><text x="15" y="142" class="mc g4">0</text><text x="15" y="156" class="mc g3">1</text><text x="15" y="170" class="mc g2">0</text><text x="15" y="184" class="mc g1">1</text><text x="15" y="198" class="mc g2">0</text><text x="15" y="212" class="mc g3">1</text>
  <text x="30" y="22" class="mc g3">const</text><text x="30" y="38" class="mc g2">async</text><text x="30" y="54" class="mc g1">await</text><text x="30" y="70" class="mc g3">fetch</text><text x="30" y="86" class="mc g4">route</text><text x="30" y="102" class="mc g2">serve</text><text x="30" y="118" class="mc g1">guard</text><text x="30" y="134" class="mc g3">token</text><text x="30" y="150" class="mc g4">parse</text><text x="30" y="166" class="mc g2">query</text><text x="30" y="182" class="mc g1">index</text><text x="30" y="198" class="mc g3">model</text><text x="30" y="214" class="mc g4">close</text>
  <text x="72" y="14" class="mc g2">0</text><text x="72" y="28" class="mc g1">1</text><text x="72" y="42" class="mc g2">0</text><text x="72" y="56" class="mc g3">1</text><text x="72" y="70" class="mc g4">0</text><text x="72" y="84" class="mc g3">1</text><text x="72" y="98" class="mc g2">0</text><text x="72" y="112" class="mc g1">1</text><text x="72" y="126" class="mc g2">0</text><text x="72" y="140" class="mc g3">1</text><text x="72" y="154" class="mc g4">0</text><text x="72" y="168" class="mc g3">1</text><text x="72" y="182" class="mc g2">0</text><text x="72" y="196" class="mc g1">1</text><text x="72" y="210" class="mc g2">0</text>
  <text x="87" y="20" class="mc g4">JWT</text><text x="87" y="36" class="mc g3">bcrypt</text><text x="87" y="52" class="mc g2">hash</text><text x="87" y="68" class="mc g1">salt</text><text x="87" y="84" class="mc g3">sign</text><text x="87" y="100" class="mc g4">verify</text><text x="87" y="116" class="mc g2">key</text><text x="87" y="132" class="mc g1">auth</text><text x="87" y="148" class="mc g3">role</text><text x="87" y="164" class="mc g4">perms</text><text x="87" y="180" class="mc g2">deny</text><text x="87" y="196" class="mc g1">allow</text><text x="87" y="212" class="mc g3">log</text>
  <text x="130" y="16" class="mc g1">1</text><text x="130" y="30" class="mc g2">0</text><text x="130" y="44" class="mc g3">1</text><text x="130" y="58" class="mc g4">0</text><text x="130" y="72" class="mc g2">1</text><text x="130" y="86" class="mc g1">0</text><text x="130" y="100" class="mc g3">1</text><text x="130" y="114" class="mc g2">0</text><text x="130" y="128" class="mc g4">1</text><text x="130" y="142" class="mc g3">0</text><text x="130" y="156" class="mc g1">1</text><text x="130" y="170" class="mc g2">0</text><text x="130" y="184" class="mc g3">1</text><text x="130" y="198" class="mc g4">0</text><text x="130" y="212" class="mc g2">1</text>
  <text x="145" y="24" class="mc g2">node</text><text x="145" y="40" class="mc g3">express</text><text x="145" y="56" class="mc g1">mongo</text><text x="145" y="72" class="mc g4">react</text><text x="145" y="88" class="mc g2">fabric</text><text x="145" y="104" class="mc g3">redis</text><text x="145" y="120" class="mc g1">http</text><text x="145" y="136" class="mc g4">rest</text><text x="145" y="152" class="mc g2">api</text><text x="145" y="168" class="mc g3">cors</text><text x="145" y="184" class="mc g1">env</text><text x="145" y="200" class="mc g4">port</text><text x="145" y="216" class="mc g2">req</text>
  <text x="188" y="18" class="mc g3">0</text><text x="188" y="32" class="mc g2">1</text><text x="188" y="46" class="mc g1">0</text><text x="188" y="60" class="mc g3">1</text><text x="188" y="74" class="mc g4">0</text><text x="188" y="88" class="mc g2">1</text><text x="188" y="102" class="mc g3">0</text><text x="188" y="116" class="mc g1">1</text><text x="188" y="130" class="mc g4">0</text><text x="188" y="144" class="mc g2">1</text><text x="188" y="158" class="mc g3">0</text><text x="188" y="172" class="mc g4">1</text><text x="188" y="186" class="mc g2">0</text><text x="188" y="200" class="mc g1">1</text><text x="188" y="214" class="mc g3">0</text>
  <text x="210" y="14" class="mc gc2">0</text><text x="210" y="28" class="mc gc1">1</text><text x="210" y="42" class="mc gc2">0</text><text x="210" y="56" class="mc gc3">1</text><text x="210" y="70" class="mc gc2">0</text><text x="210" y="84" class="mc gc1">1</text><text x="210" y="98" class="mc gc2">0</text><text x="210" y="112" class="mc gc1">1</text><text x="210" y="126" class="mc gc2">0</text><text x="210" y="140" class="mc gc3">1</text><text x="210" y="154" class="mc gc2">0</text><text x="210" y="168" class="mc gc1">1</text><text x="210" y="182" class="mc gc2">0</text><text x="210" y="196" class="mc gc3">1</text><text x="210" y="210" class="mc gc2">0</text>
  <text x="225" y="20" class="mc gc1">err</text><text x="225" y="36" class="mc gc2">try</text><text x="225" y="52" class="mc gc3">catch</text><text x="225" y="68" class="mc gc1">throw</text><text x="225" y="84" class="mc gc2">new</text><text x="225" y="100" class="mc gc1">obj</text><text x="225" y="116" class="mc gc2">fn()</text><text x="225" y="132" class="mc gc3">map</text><text x="225" y="148" class="mc gc1">arr</text><text x="225" y="164" class="mc gc2">str</text><text x="225" y="180" class="mc gc1">num</text><text x="225" y="196" class="mc gc3">bool</text><text x="225" y="212" class="mc gc2">null</text>
  <text x="262" y="16" class="mc gc2">1</text><text x="262" y="30" class="mc gc1">0</text><text x="262" y="44" class="mc gc2">1</text><text x="262" y="58" class="mc gc3">0</text><text x="262" y="72" class="mc gc1">1</text><text x="262" y="86" class="mc gc2">0</text><text x="262" y="100" class="mc gc1">1</text><text x="262" y="114" class="mc gc2">0</text><text x="262" y="128" class="mc gc3">1</text><text x="262" y="142" class="mc gc2">0</text><text x="262" y="156" class="mc gc1">1</text><text x="262" y="170" class="mc gc2">0</text><text x="262" y="184" class="mc gc3">1</text><text x="262" y="198" class="mc gc1">0</text><text x="262" y="212" class="mc gc2">1</text>
  <text x="277" y="22" class="mc gc3">schema</text><text x="277" y="38" class="mc gc2">model</text><text x="277" y="54" class="mc gc1">save()</text><text x="277" y="70" class="mc gc3">find()</text><text x="277" y="86" class="mc gc2">lean()</text><text x="277" y="102" class="mc gc1">exec()</text><text x="277" y="118" class="mc gc2">pop()</text><text x="277" y="134" class="mc gc3">ref()</text><text x="277" y="150" class="mc gc1">idx()</text><text x="277" y="166" class="mc gc2">sort()</text><text x="277" y="182" class="mc gc3">agg()</text><text x="277" y="198" class="mc gc1">drop()</text><text x="277" y="214" class="mc gc2">del()</text>
  <text x="322" y="14" class="mc gc1">0</text><text x="322" y="28" class="mc gc2">1</text><text x="322" y="42" class="mc gc3">0</text><text x="322" y="56" class="mc gc1">1</text><text x="322" y="70" class="mc gc2">0</text><text x="322" y="84" class="mc gc3">1</text><text x="322" y="98" class="mc gc1">0</text><text x="322" y="112" class="mc gc2">1</text><text x="322" y="126" class="mc gc3">0</text><text x="322" y="140" class="mc gc1">1</text><text x="322" y="154" class="mc gc2">0</text><text x="322" y="168" class="mc gc3">1</text><text x="322" y="182" class="mc gc1">0</text><text x="322" y="196" class="mc gc2">1</text><text x="322" y="210" class="mc gc3">0</text>
  <text x="337" y="20" class="mc gc2">use()</text><text x="337" y="36" class="mc gc3">next()</text><text x="337" y="52" class="mc gc1">res()</text><text x="337" y="68" class="mc gc2">req()</text><text x="337" y="84" class="mc gc3">mid()</text><text x="337" y="100" class="mc gc1">app()</text><text x="337" y="116" class="mc gc2">listen</text><text x="337" y="132" class="mc gc3">start</text><text x="337" y="148" class="mc gc1">init()</text><text x="337" y="164" class="mc gc2">boot</text><text x="337" y="180" class="mc gc3">conf</text><text x="337" y="196" class="mc gc1">env()</text><text x="337" y="212" class="mc gc2">load</text>
  <text x="378" y="16" class="mc gc3">1</text><text x="378" y="30" class="mc gc1">0</text><text x="378" y="44" class="mc gc2">1</text><text x="378" y="58" class="mc gc3">0</text><text x="378" y="72" class="mc gc1">1</text><text x="378" y="86" class="mc gc2">0</text><text x="378" y="100" class="mc gc3">1</text><text x="378" y="114" class="mc gc1">0</text><text x="378" y="128" class="mc gc2">1</text><text x="378" y="142" class="mc gc3">0</text><text x="378" y="156" class="mc gc1">1</text><text x="378" y="170" class="mc gc2">0</text><text x="378" y="184" class="mc gc3">1</text><text x="378" y="198" class="mc gc1">0</text><text x="378" y="212" class="mc gc2">1</text>
  <text x="393" y="22" class="mc gc1">render</text><text x="393" y="38" class="mc gc2">mount</text><text x="393" y="54" class="mc gc3">unmnt</text><text x="393" y="70" class="mc gc1">patch</text><text x="393" y="86" class="mc gc2">diff</text><text x="393" y="102" class="mc gc3">vdom</text><text x="393" y="118" class="mc gc1">jsx</text><text x="393" y="134" class="mc gc2">props</text><text x="393" y="150" class="mc gc3">state</text><text x="393" y="166" class="mc gc1">hook</text><text x="393" y="182" class="mc gc2">ctx</text><text x="393" y="198" class="mc gc3">memo</text><text x="393" y="214" class="mc gc1">cb()</text>
  <text x="435" y="14" class="mc gc2">0</text><text x="435" y="28" class="mc gc3">1</text><text x="435" y="42" class="mc gc1">0</text><text x="435" y="56" class="mc gc2">1</text><text x="435" y="70" class="mc gc3">0</text><text x="435" y="84" class="mc gc1">1</text><text x="435" y="98" class="mc gc2">0</text><text x="435" y="112" class="mc gc3">1</text><text x="435" y="126" class="mc gc1">0</text><text x="435" y="140" class="mc gc2">1</text><text x="435" y="154" class="mc gc3">0</text><text x="435" y="168" class="mc gc1">1</text><text x="435" y="182" class="mc gc2">0</text><text x="435" y="196" class="mc gc3">1</text><text x="435" y="210" class="mc gc1">0</text>
  <text x="450" y="20" class="mc gc3">post</text><text x="450" y="36" class="mc gc1">get</text><text x="450" y="52" class="mc gc2">put</text><text x="450" y="68" class="mc gc3">del</text><text x="450" y="84" class="mc gc1">patch</text><text x="450" y="100" class="mc gc2">head</text><text x="450" y="116" class="mc gc3">opts</text><text x="450" y="132" class="mc gc1">body</text><text x="450" y="148" class="mc gc2">query</text><text x="450" y="164" class="mc gc3">param</text><text x="450" y="180" class="mc gc1">header</text><text x="450" y="196" class="mc gc2">auth</text><text x="450" y="212" class="mc gc3">token</text>
  <text x="490" y="16" class="mc gc1">1</text><text x="490" y="30" class="mc gc2">0</text><text x="490" y="44" class="mc gc3">1</text><text x="490" y="58" class="mc gc1">0</text><text x="490" y="72" class="mc gc2">1</text><text x="490" y="86" class="mc gc3">0</text><text x="490" y="100" class="mc gc1">1</text><text x="490" y="114" class="mc gc2">0</text><text x="490" y="128" class="mc gc3">1</text><text x="490" y="142" class="mc gc1">0</text><text x="490" y="156" class="mc gc2">1</text><text x="490" y="170" class="mc gc3">0</text><text x="490" y="184" class="mc gc1">1</text><text x="490" y="198" class="mc gc2">0</text><text x="490" y="212" class="mc gc3">1</text>
  <text x="492" y="18" class="mc g3">0</text><text x="492" y="32" class="mc g2">1</text><text x="492" y="46" class="mc g1">0</text><text x="492" y="60" class="mc g3">1</text><text x="492" y="74" class="mc g4">0</text><text x="492" y="88" class="mc g2">1</text><text x="492" y="102" class="mc g3">0</text><text x="492" y="116" class="mc g1">1</text><text x="492" y="130" class="mc g4">0</text><text x="492" y="144" class="mc g2">1</text><text x="492" y="158" class="mc g3">0</text><text x="492" y="172" class="mc g4">1</text><text x="492" y="186" class="mc g2">0</text><text x="492" y="200" class="mc g1">1</text><text x="492" y="214" class="mc g3">0</text>
  <text x="507" y="24" class="mc g2">ssh</text><text x="507" y="40" class="mc g1">tcp</text><text x="507" y="56" class="mc g3">tls</text><text x="507" y="72" class="mc g4">dns</text><text x="507" y="88" class="mc g2">scan</text><text x="507" y="104" class="mc g1">nmap</text><text x="507" y="120" class="mc g3">ping</text><text x="507" y="136" class="mc g4">trace</text><text x="507" y="152" class="mc g2">sniff</text><text x="507" y="168" class="mc g1">patch</text><text x="507" y="184" class="mc g3">cve</text><text x="507" y="200" class="mc g4">fix</text><text x="507" y="216" class="mc g2">harden</text>
  <text x="548" y="16" class="mc g1">1</text><text x="548" y="30" class="mc g2">0</text><text x="548" y="44" class="mc g3">1</text><text x="548" y="58" class="mc g4">0</text><text x="548" y="72" class="mc g2">1</text><text x="548" y="86" class="mc g1">0</text><text x="548" y="100" class="mc g3">1</text><text x="548" y="114" class="mc g2">0</text><text x="548" y="128" class="mc g4">1</text><text x="548" y="142" class="mc g3">0</text><text x="548" y="156" class="mc g1">1</text><text x="548" y="170" class="mc g2">0</text><text x="548" y="184" class="mc g3">1</text><text x="548" y="198" class="mc g4">0</text><text x="548" y="212" class="mc g2">1</text>
  <text x="563" y="22" class="mc g3">find()</text><text x="563" y="38" class="mc g1">sort()</text><text x="563" y="54" class="mc g4">agg()</text><text x="563" y="70" class="mc g2">skip()</text><text x="563" y="86" class="mc g3">limit()</text><text x="563" y="102" class="mc g1">exec()</text><text x="563" y="118" class="mc g4">lean()</text><text x="563" y="134" class="mc g2">pop()</text><text x="563" y="150" class="mc g3">ref()</text><text x="563" y="166" class="mc g1">idx()</text><text x="563" y="182" class="mc g4">drop()</text><text x="563" y="198" class="mc g2">save()</text><text x="563" y="214" class="mc g3">del()</text>
  <text x="612" y="14" class="mc g2">0</text><text x="612" y="28" class="mc g1">1</text><text x="612" y="42" class="mc g2">0</text><text x="612" y="56" class="mc g3">1</text><text x="612" y="70" class="mc g4">0</text><text x="612" y="84" class="mc g3">1</text><text x="612" y="98" class="mc g2">0</text><text x="612" y="112" class="mc g1">1</text><text x="612" y="126" class="mc g2">0</text><text x="612" y="140" class="mc g3">1</text><text x="612" y="154" class="mc g4">0</text><text x="612" y="168" class="mc g3">1</text><text x="612" y="182" class="mc g2">0</text><text x="612" y="196" class="mc g1">1</text><text x="612" y="210" class="mc g2">0</text>
  <text x="627" y="20" class="mc g4">useState</text><text x="627" y="36" class="mc g3">useRef</text><text x="627" y="52" class="mc g2">useMemo</text><text x="627" y="68" class="mc g1">useEffect</text><text x="627" y="84" class="mc g3">props</text><text x="627" y="100" class="mc g4">ctx</text><text x="627" y="116" class="mc g2">render</text><text x="627" y="132" class="mc g1">mount</text><text x="627" y="148" class="mc g3">unmnt</text><text x="627" y="164" class="mc g4">patch</text><text x="627" y="180" class="mc g2">diff</text><text x="627" y="196" class="mc g1">vdom</text><text x="627" y="212" class="mc g3">jsx</text>

  <text x="340" y="104" font-family="'Courier New', monospace" font-size="15" font-weight="700" fill="#ffffff" opacity="0.95" text-anchor="middle" letter-spacing="2">GERARDO TINOCO</text>
  <text x="340" y="120" font-family="'Courier New', monospace" font-size="8" fill="#00ff41" opacity="0.9" text-anchor="middle" letter-spacing="3">BACKEND · SECURITY</text>

  <text x="10" y="216" font-family="'Courier New', monospace" font-size="7" fill="#00ff41" opacity="0.2">// what if i told you the backend was here all along</text>
  <text x="610" y="216" font-family="'Courier New', monospace" font-size="7" fill="#c8a84b" opacity="0.2">qro.mx</text>
</svg>
